<svg xmlns="http://www.w3.org/2000/svg" width="1200" height="630" viewBox="0 0 1200 630" role="img" aria-label="ValueScan — Automated website audits">
  <defs>
    <linearGradient id="bg" x1="0%" y1="0%" x2="100%" y2="100%">
      <stop offset="0%" stop-color="#0b1020"/>
      <stop offset="50%" stop-color="#151b2e"/>
      <stop offset="100%" stop-color="#312e81"/>
    </linearGradient>
    <linearGradient id="accent" x1="0%" y1="0%" x2="100%" y2="0%">
      <stop offset="0%" stop-color="#6366f1"/>
      <stop offset="100%" stop-color="#8b5cf6"/>
    </linearGradient>
  </defs>
  <rect width="1200" height="630" fill="url(#bg)"/>
  <circle cx="980" cy="140" r="200" fill="#6366f1" fill-opacity="0.15"/>
  <circle cx="1050" cy="520" r="160" fill="#8b5cf6" fill-opacity="0.12"/>
  <g transform="translate(80 200) scale(2.2)">
    <path fill="#863bff" d="M25.946 44.938c-.664.845-2.021.375-2.021-.698V33.937a2.26 2.26 0 0 0-2.262-2.262H10.287c-.92 0-1.456-1.04-.92-1.788l7.48-10.471c1.07-1.497 0-3.578-1.842-3.578H1.237c-.92 0-1.456-1.04-.92-1.788L10.013.474c.214-.297.556-.474.92-.474h28.894c.92 0 1.456 1.04.92 1.788l-7.48 10.471c-1.07 1.498 0 3.579 1.842 3.579h11.377c.943 0 1.473 1.088.89 1.83L25.947 44.94z" transform="translate(-24 -23)"/>
  </g>
  <text x="220" y="280" fill="#f1f5f9" font-family="Georgia, 'Times New Roman', serif" font-size="84" font-weight="700">ValueScan</text>
  <text x="220" y="360" fill="#a5b4fc" font-family="system-ui, sans-serif" font-size="36" font-weight="600">Automated website audits &amp; growth</text>
  <text x="220" y="430" fill="#94a3b8" font-family="system-ui, sans-serif" font-size="28">SEO · Security · Marketing · AI content · Link building</text>
  <text x="220" y="520" fill="#6366f1" font-family="system-ui, sans-serif" font-size="26" font-weight="600">valuescan.online</text>
  <rect x="220" y="545" width="180" height="5" rx="2.5" fill="url(#accent)"/>
</svg>
