<svg xmlns="http://www.w3.org/2000/svg" width="512" height="512" viewBox="0 0 512 512" role="img" aria-label="ValueScan profile picture">
  <defs>
    <linearGradient id="bg" x1="0%" y1="0%" x2="100%" y2="100%">
      <stop offset="0%" stop-color="#0b1020"/>
      <stop offset="100%" stop-color="#1e1b4b"/>
    </linearGradient>
    <linearGradient id="glow" x1="50%" y1="0%" x2="50%" y2="100%">
      <stop offset="0%" stop-color="#6366f1" stop-opacity="0.35"/>
      <stop offset="100%" stop-color="#6366f1" stop-opacity="0"/>
    </linearGradient>
  </defs>
  <rect width="512" height="512" rx="64" fill="url(#bg)"/>
  <ellipse cx="256" cy="200" rx="180" ry="120" fill="url(#glow)"/>
  <g transform="translate(256 220) scale(2.8)">
    <path fill="#863bff" d="M25.946 44.938c-.664.845-2.021.375-2.021-.698V33.937a2.26 2.26 0 0 0-2.262-2.262H10.287c-.92 0-1.456-1.04-.92-1.788l7.48-10.471c1.07-1.497 0-3.578-1.842-3.578H1.237c-.92 0-1.456-1.04-.92-1.788L10.013.474c.214-.297.556-.474.92-.474h28.894c.92 0 1.456 1.04.92 1.788l-7.48 10.471c-1.07 1.498 0 3.579 1.842 3.579h11.377c.943 0 1.473 1.088.89 1.83L25.947 44.94z" transform="translate(-24 -23)"/>
  </g>
  <text x="256" y="390" text-anchor="middle" fill="#f1f5f9" font-family="Georgia, 'Times New Roman', serif" font-size="42" font-weight="700">ValueScan</text>
  <text x="256" y="430" text-anchor="middle" fill="#94a3b8" font-family="system-ui, sans-serif" font-size="16" letter-spacing="0.12em">WEBSITE AUDITS</text>
</svg>
